<svg width="92" height="92" viewBox="0 0 92 92" fill="none" xmlns="http://www.w3.org/2000/svg">
<path d="M71 12H21L8 33L46 80L84 33.068L71 12Z" fill="#526280"/>
<path d="M29 33H8L21.0036 12L29 33Z" fill="#526280"/>
<path d="M62.9922 33H83.9922L70.9886 12L62.9922 33Z" fill="#526280"/>
<path d="M45.9961 12H21.0039L29.0084 33.0014L45.9961 12Z" fill="#7786A3"/>
<path d="M45.9961 12H70.9883L62.9838 33.0014L45.9961 12Z" fill="#7786A3"/>
<path d="M62.9844 33H29.0039L46 12L62.9844 33Z" fill="#FFF9E5"/>
<path d="M29.0017 32.9916H8L46 80L29.0017 32.9916Z" fill="#2B3954"/>
<path d="M62.9983 32.9916H84L46 80L62.9983 32.9916Z" fill="#7786A3"/>
</svg>
