<svg width="92" height="92" viewBox="0 0 92 92" fill="none" xmlns="http://www.w3.org/2000/svg">
<g clip-path="url(#clip0)">
<path d="M11.5 25.875L46 5.75L80.5 25.875L46 46L11.5 25.875Z" fill="#7786A3"/>
<path d="M80.4999 25.875L80.6787 65.8154L45.9999 85.6308L45.8212 45.6904L80.4999 25.875Z" fill="#526280"/>
<path d="M11.5001 25.875L11.3213 65.8154L46.0001 85.6308L46.1788 45.6904L11.5001 25.875Z" fill="#2B3954"/>
<path d="M28.7495 35.7313L45.9999 25.6686L63.2504 35.7313L45.9999 45.7941L28.7495 35.7313Z" fill="#FFF9E5"/>
<path d="M63.2502 35.7313L63.3396 55.702L45.9998 65.6099L45.9104 45.6393L63.2502 35.7313Z" fill="#2B3954"/>
<path d="M28.7495 35.7313L28.6601 55.702L45.9999 65.6099L46.0893 45.6393L28.7495 35.7313Z" fill="#7786A3"/>
</g>
<defs>
<clipPath id="clip0">
<rect width="92" height="92" fill="white"/>
</clipPath>
</defs>
</svg>
