<svg width="92" height="92" viewBox="0 0 92 92" fill="none" xmlns="http://www.w3.org/2000/svg">
<path fill-rule="evenodd" clip-rule="evenodd" d="M17.25 45.2812C17.25 55.9991 25.9384 64.6875 36.6562 64.6875V76.1875C19.5872 76.1875 5.75 62.3503 5.75 45.2812H17.25Z" fill="#526280"/>
<path fill-rule="evenodd" clip-rule="evenodd" d="M32.2154 26.3841C23.6356 28.3903 17.25 36.097 17.25 45.2813H5.75C5.75 30.6353 15.9319 18.3814 29.5971 15.1862L32.2154 26.3841Z" fill="#2B3954"/>
<path fill-rule="evenodd" clip-rule="evenodd" d="M36.9375 45.2813C36.9375 31.3879 48.2004 20.125 62.0938 20.125C75.9871 20.125 87.25 31.3879 87.25 45.2813C87.25 54.7763 81.9879 63.0363 74.2411 67.3147L70.0714 59.7646C75.1805 56.9429 78.625 51.5113 78.625 45.2813C78.625 36.1513 71.2237 28.75 62.0938 28.75C52.9638 28.75 45.5625 36.1513 45.5625 45.2813C45.5625 46.059 45.6159 46.8218 45.7187 47.5669L37.1746 48.7456C37.0181 47.611 36.9375 46.4544 36.9375 45.2813Z" fill="#526280"/>
<path fill-rule="evenodd" clip-rule="evenodd" d="M45.5955 44.2283H51.745L41.3914 53.9419L31.0378 44.2283H36.9591C37.5111 30.8232 48.5531 20.125 62.0938 20.125V28.75C53.3175 28.75 46.1386 35.589 45.5955 44.2283Z" fill="#FFF9E5"/>
<path fill-rule="evenodd" clip-rule="evenodd" d="M73.2718 44.2455L62.0135 32.9955L50.7552 44.2455H56.0355C56.0535 44.5881 56.0626 44.9335 56.0626 45.2813C56.0626 55.9991 47.3741 64.6875 36.6563 64.6875L36.6257 64.6875V76.1875L36.6563 76.1875C53.7254 76.1875 67.5626 62.3504 67.5626 45.2813C67.5626 44.9348 67.5568 44.5895 67.5455 44.2455H73.2718Z" fill="#7786A3"/>
</svg>
